<svg width="139" height="139" viewBox="0 0 139 139" fill="none" xmlns="http://www.w3.org/2000/svg">
<path d="M64.8227 2.66094C64.7651 2.36842 64.637 2.12406 64.4385 1.92785C64.244 1.72709 63.9946 1.58384 63.6905 1.49809C63.386 1.40813 63.0502 1.37802 62.6833 1.40775C62.2868 1.43987 61.9399 1.53378 61.6426 1.68949C61.3491 1.84063 61.1273 2.03692 60.977 2.27836C60.831 2.51946 60.7697 2.78553 60.7933 3.07656C60.8275 3.49836 61.0245 3.80719 61.3842 4.00306C61.7482 4.19859 62.1821 4.33963 62.6858 4.42619L63.6174 4.60545C64.3407 4.72941 64.9729 4.96052 65.5141 5.29879C66.0549 5.63283 66.3557 6.17525 66.4165 6.92605C66.4572 7.42798 66.361 7.89218 66.1281 8.31863C65.8991 8.74052 65.543 9.0878 65.0598 9.36045C64.5809 9.63276 63.9956 9.79694 63.3038 9.85299C62.6543 9.90562 62.0784 9.84613 61.5763 9.67454C61.0741 9.50294 60.6704 9.23633 60.3651 8.87471C60.0599 8.51309 59.8699 8.08057 59.7951 7.57715L60.9593 7.48283C61.0197 7.80909 61.1582 8.07808 61.3749 8.28979C61.5913 8.49728 61.858 8.64549 62.1752 8.73443C62.4962 8.81881 62.8444 8.84579 63.2198 8.81537C63.6416 8.7812 64.0136 8.68313 64.3359 8.52115C64.6624 8.35884 64.9105 8.14557 65.0801 7.88133C65.2536 7.61253 65.3272 7.31574 65.3009 6.99096C65.2784 6.71258 65.1793 6.48497 65.0036 6.30815C64.8321 6.13099 64.613 5.99378 64.3461 5.89652C64.0835 5.79892 63.7579 5.71067 63.3694 5.63176L62.2186 5.41931C61.45 5.26081 60.8497 5.00376 60.4175 4.64818C59.9854 4.29259 59.7451 3.81532 59.6965 3.21637C59.6559 2.71444 59.7569 2.25834 59.9996 1.84807C60.2462 1.43325 60.5991 1.09897 61.0583 0.845239C61.5217 0.591166 62.0487 0.440207 62.6392 0.392363C63.2213 0.345203 63.7529 0.408276 64.2339 0.581582C64.715 0.754888 65.1055 1.01619 65.4056 1.3655C65.7052 1.71059 65.8821 2.11233 65.9363 2.57072L64.8227 2.66094ZM76.8665 3.60624C76.8192 3.18982 76.6822 2.82478 76.4555 2.51114C76.2335 2.19367 75.9502 1.9429 75.6057 1.75883C75.2653 1.57515 74.8929 1.46504 74.4883 1.42852C73.9277 1.37791 73.4113 1.47364 72.9391 1.71569C72.471 1.95812 72.0838 2.34168 71.7772 2.86637C71.4706 3.39106 71.2827 4.03694 71.2135 4.804C71.1442 5.57107 71.2134 6.24015 71.4211 6.81127C71.6287 7.38238 71.941 7.8291 72.3581 8.15143C72.7793 8.47414 73.2702 8.6608 73.8308 8.7114C74.2354 8.74793 74.6214 8.70841 74.9887 8.59286C75.3564 8.47309 75.6778 8.27903 75.9527 8.01067C76.2322 7.73847 76.4345 7.40407 76.5595 7.00745L77.6974 7.11018C77.5327 7.71141 77.257 8.22402 76.8703 8.648C76.484 9.06776 76.0187 9.37417 75.4744 9.56723C74.9343 9.76066 74.3545 9.82942 73.7349 9.77349C72.951 9.70272 72.2708 9.44798 71.6943 9.00928C71.1178 8.57058 70.6887 7.9816 70.407 7.24235C70.1257 6.49887 70.0279 5.65299 70.1135 4.7047C70.1991 3.75641 70.4466 2.94383 70.8562 2.26697C71.2661 1.5859 71.7939 1.08118 72.4396 0.752819C73.0854 0.424457 73.8002 0.29566 74.5841 0.366429C75.1995 0.421978 75.7555 0.593269 76.2522 0.880302C76.7531 1.16772 77.1559 1.55461 77.4604 2.04099C77.7695 2.52354 77.9508 3.07953 78.0045 3.70897L76.8665 3.60624ZM83.1558 1.57139L86.1744 2.37215C86.8493 2.55118 87.3829 2.81749 87.775 3.17108C88.1683 3.52057 88.4185 3.93064 88.5257 4.40126C88.6381 4.86889 88.6227 5.37266 88.4794 5.91258C88.3199 6.51385 88.0436 6.99438 87.6505 7.35417C87.2614 7.71505 86.7653 7.91837 86.1621 7.96413L87.1922 12.1514L85.9038 11.8097L84.961 7.86225C84.915 7.8544 84.8428 7.83746 84.7447 7.81142L82.8181 7.30036L81.9035 10.7485L80.7991 10.4555L83.1558 1.57139ZM84.9625 6.79218C85.6456 6.97338 86.1831 6.96055 86.5751 6.75369C86.9712 6.54791 87.2419 6.17097 87.3873 5.62287C87.5349 5.06659 87.4898 4.59275 87.2522 4.20134C87.0145 3.80994 86.5521 3.52309 85.8649 3.3408L83.9998 2.84602L83.0851 6.29415L84.9625 6.79218ZM99.1141 12.237C98.7115 13.0999 98.2017 13.7819 97.5848 14.2833C96.9697 14.7808 96.3008 15.0734 95.5781 15.1611C94.8592 15.2506 94.1451 15.1298 93.4356 14.7987C92.7223 14.4659 92.1691 13.9953 91.7759 13.3868C91.3827 12.7784 91.1792 12.0787 91.1654 11.2877C91.1534 10.4929 91.3487 9.66403 91.7513 8.8012C92.1539 7.93838 92.6628 7.25821 93.2779 6.7607C93.8948 6.25936 94.5626 5.96395 95.2815 5.87446C96.0004 5.78497 96.7165 5.90665 97.4298 6.23949C98.1392 6.57055 98.6905 7.0403 99.0837 7.64874C99.4808 8.25897 99.6853 8.9615 99.6973 9.75632C99.7111 10.5473 99.5167 11.3742 99.1141 12.237ZM98.1132 11.77C98.4389 11.072 98.6011 10.4192 98.5998 9.81155C98.5985 9.20387 98.4546 8.67672 98.168 8.23011C97.8852 7.78528 97.4888 7.44386 96.9788 7.20586C96.4688 6.96786 95.9506 6.88248 95.4242 6.94972C94.9016 7.01876 94.4071 7.24796 93.9405 7.63732C93.474 8.02668 93.0779 8.57033 92.7522 9.26826C92.4265 9.96619 92.2643 10.619 92.2656 11.2267C92.2669 11.8344 92.4089 12.3606 92.6916 12.8054C92.9782 13.2521 93.3765 13.5944 93.8866 13.8324C94.3966 14.0704 94.9129 14.1549 95.4354 14.0858C95.9618 14.0186 96.4583 13.7903 96.9248 13.4009C97.3914 13.0116 97.7875 12.4679 98.1132 11.77ZM105.452 10.4493L106.393 11.0975L101.755 17.8306L105.268 20.2503L104.692 21.0867L100.238 18.0189L105.452 10.4493ZM113.6 16.3578L114.438 17.1352L108.874 23.1264L112 26.0289L111.309 26.7732L107.346 23.0932L113.6 16.3578ZM119.768 37.2516L127.868 32.9075L129.272 35.5255C129.69 36.3049 129.888 37.0632 129.866 37.8003C129.849 38.5392 129.617 39.2208 129.169 39.8451C128.725 40.4675 128.085 41.0026 127.25 41.4507C126.407 41.9027 125.6 42.1406 124.831 42.1646C124.061 42.1885 123.359 41.9985 122.724 41.5944C122.09 41.1904 121.554 40.5819 121.118 39.7689L119.768 37.2516ZM121.977 39.2218C122.501 40.1988 123.171 40.7855 123.987 40.9818C124.803 41.178 125.715 41.0061 126.722 40.4661C127.717 39.9321 128.36 39.2776 128.651 38.5025C128.944 37.7254 128.841 36.8707 128.341 35.9384L127.513 34.3944L121.203 37.7785L121.977 39.2218ZM131.382 52.7947C130.474 53.0815 129.627 53.1671 128.84 53.0516C128.058 52.9348 127.39 52.6398 126.837 52.1666C126.285 51.6975 125.891 51.0897 125.655 50.3432C125.418 49.5926 125.391 48.8668 125.573 48.1657C125.755 47.4646 126.133 46.8415 126.707 46.2965C127.284 45.7502 128.027 45.3337 128.935 45.0469C129.843 44.7602 130.688 44.6752 131.47 44.792C132.257 44.9075 132.926 45.1998 133.478 45.6689C134.03 46.1381 134.425 46.7479 134.662 47.4985C134.898 48.245 134.924 48.9688 134.742 49.6699C134.561 50.375 134.181 51.0007 133.604 51.547C133.031 52.092 132.29 52.5079 131.382 52.7947ZM131.049 51.7415C131.784 51.5095 132.374 51.1876 132.821 50.7758C133.268 50.3639 133.559 49.9015 133.694 49.3883C133.831 48.8792 133.814 48.3563 133.645 47.8196C133.475 47.283 133.188 46.8434 132.782 46.5011C132.378 46.1628 131.875 45.9534 131.273 45.8729C130.67 45.7924 130.002 45.8682 129.268 46.1001C128.533 46.3321 127.942 46.654 127.496 47.0658C127.049 47.4777 126.757 47.9381 126.621 48.4472C126.485 48.9604 126.502 49.4853 126.672 50.022C126.841 50.5587 127.128 50.9962 127.532 51.3345C127.938 51.6768 128.442 51.8882 129.044 51.9687C129.646 52.0492 130.315 51.9734 131.049 51.7415ZM136.905 55.8193L137.018 56.969L129.801 59.604L129.81 59.6925L137.404 60.8984L137.529 62.1745L130.316 64.8473L130.324 64.9232L137.915 66.1038L138.028 67.2535L128.635 65.6503L128.519 64.4753L135.563 61.768L135.555 61.6922L128.119 60.3944L128.003 59.2193L136.905 55.8193ZM128.196 78.4029L128.312 77.3172L135.958 73.1253L135.967 73.0369L128.847 72.2802L128.968 71.144L138.108 72.1154L137.991 73.2137L130.332 77.4043L130.323 77.4927L137.456 78.2508L137.336 79.3743L128.196 78.4029ZM128.574 99.3957C128.855 99.4947 129.13 99.5085 129.4 99.4373C129.672 99.3717 129.922 99.2297 130.15 99.0113C130.383 98.7947 130.579 98.5208 130.74 98.1897C130.914 97.8318 131.009 97.4853 131.026 97.1501C131.045 96.8206 130.989 96.5298 130.857 96.2777C130.723 96.0294 130.525 95.8415 130.263 95.7139C129.882 95.5291 129.516 95.5418 129.165 95.7522C128.811 95.9664 128.469 96.2684 128.139 96.6583L127.511 97.3697C127.037 97.9297 126.517 98.3568 125.95 98.6511C125.388 98.9471 124.768 98.9307 124.09 98.6016C123.637 98.3816 123.286 98.063 123.037 97.6457C122.79 97.2341 122.672 96.7509 122.683 96.1963C122.691 95.6454 122.847 95.0578 123.151 94.4336C123.435 93.8473 123.779 93.3815 124.182 93.0362C124.585 92.6909 125.02 92.4786 125.486 92.3994C125.953 92.3202 126.422 92.3763 126.893 92.5676L126.383 93.6183C126.071 93.5045 125.769 93.4872 125.477 93.5663C125.188 93.6472 124.925 93.8017 124.687 94.0297C124.452 94.2633 124.252 94.5495 124.087 94.8883C123.902 95.269 123.798 95.6392 123.773 95.9991C123.747 96.3628 123.805 96.6848 123.946 96.9652C124.09 97.2512 124.308 97.4654 124.601 97.6077C124.852 97.7297 125.099 97.76 125.34 97.6986C125.58 97.6409 125.809 97.5218 126.029 97.3414C126.246 97.1648 126.488 96.9292 126.753 96.6346L127.521 95.7513C128.048 95.1699 128.574 94.7834 129.1 94.5918C129.626 94.4002 130.159 94.4357 130.7 94.6982C131.153 94.9182 131.494 95.2369 131.724 95.6544C131.956 96.0776 132.065 96.5514 132.05 97.0758C132.033 97.6041 131.896 98.1346 131.637 98.6676C131.382 99.1929 131.057 99.6187 130.664 99.945C130.27 100.271 129.847 100.475 129.393 100.556C128.944 100.639 128.508 100.587 128.086 100.401L128.574 99.3957ZM121.63 109.288C122.012 109.459 122.396 109.527 122.781 109.492C123.168 109.463 123.528 109.346 123.862 109.144C124.193 108.944 124.477 108.68 124.715 108.35C125.044 107.893 125.224 107.4 125.256 106.87C125.286 106.344 125.153 105.816 124.857 105.285C124.562 104.754 124.102 104.263 123.477 103.813C122.852 103.363 122.241 103.082 121.643 102.97C121.046 102.857 120.503 102.899 120.013 103.094C119.521 103.292 119.11 103.619 118.781 104.076C118.544 104.406 118.381 104.758 118.294 105.133C118.209 105.511 118.213 105.886 118.304 106.259C118.396 106.638 118.581 106.983 118.858 107.292L118.191 108.219C117.757 107.771 117.456 107.273 117.288 106.725C117.124 106.178 117.097 105.622 117.208 105.055C117.316 104.492 117.552 103.958 117.916 103.453C118.376 102.814 118.941 102.358 119.613 102.086C120.284 101.813 121.009 101.743 121.789 101.877C122.572 102.014 123.35 102.36 124.122 102.917C124.895 103.473 125.468 104.1 125.842 104.797C126.22 105.497 126.385 106.208 126.339 106.931C126.293 107.654 126.04 108.335 125.58 108.973C125.219 109.475 124.788 109.866 124.288 110.147C123.786 110.432 123.248 110.582 122.674 110.596C122.102 110.617 121.531 110.49 120.962 110.215L121.63 109.288ZM120.18 115.736L117.955 117.926C117.457 118.416 116.956 118.74 116.452 118.897C115.951 119.058 115.471 119.065 115.011 118.917C114.551 118.776 114.126 118.506 113.734 118.108C113.297 117.665 113.024 117.182 112.915 116.661C112.802 116.142 112.88 115.612 113.148 115.069L109.019 113.824L109.969 112.889L113.847 114.087C113.877 114.052 113.928 113.998 114 113.927L115.421 112.529L112.919 109.986L113.733 109.185L120.18 115.736ZM114.767 114.633C114.263 115.129 114.001 115.598 113.979 116.041C113.955 116.487 114.141 116.911 114.539 117.316C114.943 117.726 115.374 117.928 115.831 117.923C116.289 117.918 116.772 117.666 117.278 117.167L118.654 115.813L116.151 113.271L114.767 114.633ZM102.891 124.051C102.352 123.266 102.023 122.481 101.904 121.695C101.788 120.912 101.875 120.187 102.166 119.52C102.454 118.855 102.921 118.301 103.566 117.858C104.215 117.412 104.901 117.175 105.625 117.145C106.349 117.115 107.055 117.294 107.744 117.684C108.435 118.077 109.049 118.666 109.589 119.451C110.128 120.236 110.455 121.019 110.572 121.802C110.691 122.588 110.606 123.313 110.318 123.978C110.031 124.643 109.562 125.198 108.914 125.644C108.268 126.087 107.584 126.324 106.86 126.354C106.132 126.386 105.423 126.206 104.732 125.812C104.044 125.423 103.43 124.836 102.891 124.051ZM103.802 123.426C104.238 124.06 104.718 124.532 105.242 124.839C105.766 125.146 106.293 125.29 106.824 125.269C107.35 125.252 107.846 125.083 108.31 124.765C108.774 124.446 109.11 124.043 109.32 123.555C109.525 123.07 109.579 122.528 109.48 121.928C109.381 121.328 109.114 120.711 108.678 120.076C108.242 119.441 107.762 118.97 107.238 118.663C106.713 118.356 106.188 118.211 105.661 118.229C105.131 118.249 104.634 118.418 104.17 118.737C103.706 119.056 103.371 119.458 103.165 119.943C102.956 120.431 102.901 120.974 102.999 121.574C103.098 122.173 103.365 122.791 103.802 123.426ZM101.213 130.42L100.177 130.901L96.7302 123.488L92.8622 125.286L92.434 124.365L97.3381 122.085L101.213 130.42ZM91.9692 134.444L90.8737 134.769L88.5504 126.93L84.4607 128.142L84.1721 127.168L89.3573 125.631L91.9692 134.444ZM70.8455 129.107L70.4424 138.29L67.4746 138.159C66.591 138.12 65.8381 137.903 65.2159 137.507C64.5892 137.116 64.1219 136.568 63.8139 135.864C63.5058 135.164 63.3725 134.341 63.4141 133.394C63.456 132.438 63.6633 131.623 64.036 130.949C64.4087 130.275 64.9308 129.769 65.6022 129.43C66.2736 129.091 67.0702 128.941 67.9918 128.982L70.8455 129.107ZM68.0234 130C66.9157 129.951 66.0691 130.227 65.4836 130.829C64.8981 131.43 64.5803 132.301 64.5302 133.443C64.4806 134.571 64.7149 135.458 65.233 136.104C65.7509 136.754 66.5383 137.102 67.5952 137.148L69.3455 137.225L69.6595 130.071L68.0234 130ZM51.5625 131.195C51.7756 130.267 52.1312 129.493 52.6294 128.874C53.1267 128.259 53.7195 127.832 54.4079 127.595C55.0921 127.357 55.8157 127.326 56.5787 127.501C57.3459 127.677 57.9854 128.022 58.4973 128.534C59.0092 129.047 59.3547 129.688 59.5338 130.459C59.712 131.234 59.6946 132.085 59.4816 133.013C59.2685 133.941 58.9133 134.713 58.4161 135.328C57.9178 135.947 57.3266 136.376 56.6424 136.614C55.9582 136.852 55.2325 136.883 54.4654 136.707C53.7023 136.532 53.0649 136.188 52.553 135.675C52.037 135.162 51.6899 134.518 51.5117 133.743C51.3325 132.972 51.3495 132.123 51.5625 131.195ZM52.639 131.442C52.4667 132.193 52.4448 132.865 52.5733 133.459C52.7018 134.053 52.9529 134.538 53.3267 134.915C53.6963 135.291 54.1554 135.542 54.704 135.668C55.2525 135.793 55.7771 135.768 56.2778 135.592C56.7743 135.416 57.2099 135.088 57.5845 134.609C57.9592 134.131 58.2327 133.517 58.4051 132.766C58.5774 132.015 58.5993 131.343 58.4708 130.749C58.3423 130.155 58.0932 129.67 57.7236 129.294C57.3498 128.918 56.8887 128.666 56.3401 128.54C55.7916 128.415 55.269 128.44 54.7725 128.617C54.2719 128.793 53.8342 129.12 53.4596 129.599C53.0849 130.077 52.8114 130.691 52.639 131.442ZM46.1525 134.421L45.1045 133.934L46.496 126.379L46.4154 126.342L41.5228 132.273L40.3596 131.733L41.7166 124.162L41.6475 124.13L36.778 130.072L35.73 129.586L41.878 122.306L42.949 122.802L41.7076 130.246L41.7767 130.278L46.6689 124.528L47.7399 125.025L46.1525 134.421ZM31.1331 115.428L32.0072 116.082L31.7017 124.796L31.7729 124.849L36.0628 119.117L36.9776 119.801L31.4707 127.16L30.5864 126.498L30.8994 117.774L30.8283 117.721L26.5307 123.464L25.6261 122.787L31.1331 115.428ZM12.8704 105.082C12.6425 105.274 12.4909 105.505 12.4155 105.773C12.3342 106.041 12.3298 106.329 12.4022 106.636C12.4711 106.946 12.6075 107.254 12.8114 107.561C13.0317 107.892 13.282 108.15 13.5623 108.335C13.8368 108.518 14.116 108.617 14.4 108.631C14.6817 108.642 14.9441 108.567 15.1872 108.405C15.5396 108.171 15.7142 107.849 15.7111 107.439C15.7057 107.026 15.6187 106.578 15.4503 106.095L15.1554 105.194C14.9132 104.501 14.8089 103.836 14.8425 103.199C14.8725 102.564 15.2011 102.038 15.8283 101.621C16.2476 101.342 16.7002 101.201 17.1861 101.198C17.6661 101.194 18.1425 101.337 18.6152 101.627C19.0855 101.914 19.5129 102.346 19.8972 102.924C20.2581 103.467 20.4853 103.999 20.5786 104.522C20.6719 105.044 20.6344 105.526 20.4661 105.969C20.2978 106.411 20.0116 106.787 19.6075 107.096L18.9607 106.124C19.2168 105.913 19.3849 105.661 19.465 105.369C19.5416 105.079 19.542 104.774 19.466 104.454C19.3842 104.132 19.239 103.814 19.0304 103.501C18.7961 103.148 18.5299 102.87 18.232 102.667C17.9318 102.46 17.625 102.347 17.3116 102.326C16.9924 102.305 16.6972 102.384 16.4258 102.565C16.1933 102.72 16.0423 102.917 15.9728 103.156C15.9009 103.392 15.8871 103.65 15.9314 103.93C15.9734 104.208 16.054 104.535 16.1733 104.913L16.5454 106.023C16.7793 106.772 16.8455 107.421 16.744 107.972C16.6425 108.522 16.3415 108.964 15.8412 109.296C15.4219 109.575 14.974 109.708 14.4975 109.695C14.0151 109.68 13.5517 109.533 13.1071 109.255C12.6603 108.973 12.2728 108.585 11.9447 108.092C11.6213 107.605 11.4187 107.11 11.3371 106.605C11.2555 106.1 11.2947 105.632 11.4548 105.2C11.6114 104.771 11.877 104.421 12.2517 104.152L12.8704 105.082ZM7.86982 94.0706C7.52799 94.3131 7.27442 94.6093 7.10912 94.9592C6.93824 95.3068 6.85535 95.676 6.86045 96.0666C6.86384 96.4533 6.94719 96.8327 7.11049 97.2046C7.33673 97.72 7.66981 98.1261 8.10974 98.4228C8.54796 98.7157 9.07082 98.8698 9.67831 98.885C10.2858 98.9002 10.9422 98.753 11.6474 98.4434C12.3526 98.1339 12.9052 97.7503 13.3052 97.2928C13.7051 96.8353 13.9456 96.3461 14.0266 95.8253C14.1059 95.3006 14.0324 94.7806 13.8062 94.2652C13.6429 93.8932 13.422 93.5743 13.1435 93.3083C12.8611 93.0441 12.536 92.8563 12.1683 92.7451C11.795 92.6317 11.4045 92.6159 10.9968 92.6979L10.5375 91.6517C11.1436 91.5058 11.7256 91.4998 12.2836 91.6338C12.8377 91.7696 13.3306 92.0292 13.7624 92.4127C14.1925 92.7923 14.5326 93.267 14.7827 93.8366C15.099 94.5573 15.2043 95.276 15.0983 95.9926C14.9924 96.7093 14.6836 97.3693 14.1721 97.9728C13.6568 98.5781 12.9632 99.072 12.0914 99.4548C11.2195 99.8375 10.3884 100.013 9.59791 99.9809C8.80358 99.9507 8.10678 99.732 7.50752 99.325C6.90826 98.9179 6.45043 98.354 6.13403 97.6333C5.88568 97.0676 5.76732 96.4979 5.77896 95.9244C5.78889 95.3469 5.93336 94.8075 6.21235 94.306C6.48577 93.8024 6.88517 93.3752 7.41054 93.0244L7.86982 94.0706ZM3.0503 89.5295L2.29991 86.4979C2.13214 85.8201 2.10889 85.2243 2.23017 84.7103C2.34735 84.1974 2.58643 83.7808 2.94743 83.4604C3.30331 83.1369 3.75236 82.908 4.29459 82.7738C4.89843 82.6243 5.45264 82.6354 5.95721 82.8069C6.46076 82.9744 6.8777 83.3115 7.20804 83.8182L10.3832 80.9005L10.7035 82.1945L7.69658 84.9201C7.71187 84.9643 7.73172 85.0357 7.75612 85.1343L8.23503 87.069L11.6979 86.2119L11.9724 87.321L3.0503 89.5295ZM6.75781 85.4337C6.588 84.7477 6.31813 84.2826 5.94818 84.0385C5.57722 83.7903 5.11651 83.7343 4.56607 83.8706C4.00741 84.0089 3.61369 84.2763 3.38491 84.673C3.15614 85.0697 3.12716 85.6131 3.29798 86.3032L3.76164 88.1763L7.22451 87.3192L6.75781 85.4337ZM4.71216 70.4143C5.6622 70.351 6.50555 70.4687 7.24221 70.7674C7.97464 71.0663 8.55351 71.5113 8.97882 72.1021C9.40385 72.6888 9.64239 73.3727 9.69443 74.1538C9.74676 74.9392 9.6012 75.6508 9.25775 76.2887C8.9143 76.9265 8.39943 77.4422 7.71313 77.8357C7.02261 78.2295 6.20233 78.458 5.25229 78.5213C4.30224 78.5846 3.46101 78.4667 2.72857 78.1678C1.99192 77.8691 1.41108 77.4264 0.986046 76.8398C0.561016 76.2531 0.322339 75.5671 0.270014 74.7817C0.217971 74.0006 0.363674 73.2911 0.707123 72.6532C1.05029 72.0112 1.56713 71.4932 2.25765 71.0995C2.94395 70.706 3.76212 70.4776 4.71216 70.4143ZM4.78559 71.5163C4.01711 71.5675 3.36699 71.7402 2.83524 72.0343C2.30348 72.3285 1.91107 72.7087 1.65798 73.1752C1.40462 73.6374 1.29665 74.1493 1.33406 74.7108C1.37148 75.2724 1.54654 75.7676 1.85926 76.1963C2.1717 76.6208 2.61096 76.9436 3.17703 77.1645C3.74311 77.3855 4.41038 77.4704 5.17886 77.4192C5.94734 77.368 6.59746 77.1954 7.12921 76.9012C7.66096 76.6071 8.05352 76.2289 8.30688 75.7667C8.55997 75.3003 8.6678 74.7863 8.63039 74.2247C8.59297 73.6631 8.41804 73.1701 8.1056 72.7456C7.79288 72.3169 7.35349 71.992 6.78741 71.771C6.22134 71.55 5.55406 71.4651 4.78559 71.5163ZM0.085164 65.7459L0.196424 64.6088L8.33335 65.4049L8.74872 61.1595L9.75952 61.2584L9.23289 66.6409L0.085164 65.7459ZM1.30875 55.7519L1.58381 54.6429L9.51914 56.6112L10.546 52.471L11.5318 52.7155L10.2298 57.9646L1.30875 55.7519ZM16.6406 40.2541L8.94034 35.2353L10.5624 32.7466C11.0454 32.0056 11.6155 31.468 12.2728 31.1337C12.929 30.7935 13.6384 30.67 14.4011 30.763C15.1603 30.8537 15.9369 31.1579 16.7311 31.6754C17.5323 32.1977 18.1283 32.7907 18.519 33.4545C18.9097 34.1183 19.0802 34.8254 19.0305 35.576C18.9807 36.3265 18.704 37.0882 18.2003 37.8611L16.6406 40.2541ZM17.3078 37.3703C17.9132 36.4415 18.1061 35.5721 17.8864 34.7621C17.6667 33.9522 17.0783 33.2353 16.1211 32.6114C15.1745 31.9944 14.2916 31.7448 13.4723 31.8625C12.6496 31.9778 11.9494 32.4787 11.3717 33.365L10.4151 34.8327L16.4136 38.7423L17.3078 37.3703ZM24.6734 22.5959C25.3626 23.2529 25.8463 23.9537 26.1245 24.6983C26.3997 25.44 26.4635 26.1673 26.316 26.8802C26.1713 27.5901 25.8289 28.2283 25.2888 28.795C24.7457 29.3647 24.1231 29.7388 23.421 29.9173C22.7189 30.0957 21.9908 30.0652 21.2368 29.8259C20.4797 29.5836 19.7565 29.134 19.0673 28.477C18.3781 27.8201 17.896 27.1207 17.6208 26.379C17.3425 25.6344 17.2757 24.9072 17.4204 24.1973C17.565 23.4875 17.9089 22.8477 18.452 22.2779C18.9921 21.7113 19.6133 21.3387 20.3154 21.1603C21.0204 20.9788 21.7515 21.0091 22.5086 21.2514C23.2626 21.4908 23.9842 21.9389 24.6734 22.5959ZM23.9113 23.3954C23.3538 22.864 22.7869 22.5019 22.2106 22.3092C21.6343 22.1164 21.0888 22.0846 20.5741 22.2137C20.0623 22.3397 19.6122 22.6063 19.2239 23.0137C18.8355 23.4211 18.5892 23.885 18.4849 24.4053C18.3836 24.9225 18.443 25.4644 18.663 26.0308C18.8831 26.5972 19.2719 27.1462 19.8294 27.6776C20.3869 28.209 20.9538 28.571 21.5301 28.7638C22.1064 28.9565 22.6505 28.9899 23.1623 28.8639C23.677 28.7348 24.1285 28.4666 24.5169 28.0592C24.9052 27.6518 25.1501 27.1895 25.2514 26.6722C25.3557 26.1519 25.2978 25.6085 25.0777 25.0421C24.8576 24.4757 24.4688 23.9268 23.9113 23.3954ZM24.6439 16.3085L25.5952 15.6531L31.3943 20.692L31.4675 20.6416L28.8467 13.4132L29.9026 12.6858L35.733 17.7032L35.7957 17.66L33.154 10.446L34.1054 9.79059L37.2496 18.7858L36.2774 19.4556L30.4987 14.603L30.436 14.6462L32.9005 21.7819L31.9282 22.4517L24.6439 16.3085ZM48.631 13.0209L47.6238 13.4423L40.2695 8.75734L40.1875 8.79163L42.9508 15.3971L41.8967 15.8381L38.3496 7.35868L39.3685 6.93243L46.7277 11.6291L46.8097 11.5948L44.0415 4.97759L45.0839 4.54155L48.631 13.0209Z" fill="white"/>
</svg>
